<mxfile host="app.diagrams.net" modified="2021-06-02T13:51:20.874Z" agent="5.0 (Windows NT 10.0; Win64; x64) AppleWebKit/537.36 (KHTML, like Gecko) Chrome/81.0.4044.92 Safari/537.36" etag="YTputuXqeBa0eYGCKYru" version="14.6.9" type="github">
  <diagram id="5Zfc_T5K20A2A42mgbLi" name="Page-1">
    <mxGraphModel dx="1038" dy="507" grid="1" gridSize="10" guides="1" tooltips="1" connect="1" arrows="1" fold="1" page="1" pageScale="1" pageWidth="850" pageHeight="1100" math="0" shadow="0">
      <root>
        <mxCell id="0" />
        <mxCell id="1" parent="0" />
        <mxCell id="Qsali9sFUtpeHcabr8F2-1" value="" style="ellipse;whiteSpace=wrap;html=1;aspect=fixed;strokeColor=#000000;fillColor=#1A1A1A;" vertex="1" parent="1">
          <mxGeometry x="20" y="160" width="80" height="80" as="geometry" />
        </mxCell>
        <mxCell id="Qsali9sFUtpeHcabr8F2-2" value="Find/searchRestaurant" style="rounded=0;whiteSpace=wrap;html=1;" vertex="1" parent="1">
          <mxGeometry x="180" y="170" width="130" height="60" as="geometry" />
        </mxCell>
        <mxCell id="Qsali9sFUtpeHcabr8F2-3" value="Add items" style="rounded=0;whiteSpace=wrap;html=1;" vertex="1" parent="1">
          <mxGeometry x="540" y="170" width="120" height="60" as="geometry" />
        </mxCell>
        <mxCell id="Qsali9sFUtpeHcabr8F2-4" value="User" style="text;html=1;strokeColor=none;fillColor=none;align=center;verticalAlign=middle;whiteSpace=wrap;rounded=0;" vertex="1" parent="1">
          <mxGeometry x="60" y="260" width="40" height="20" as="geometry" />
        </mxCell>
        <mxCell id="Qsali9sFUtpeHcabr8F2-5" value="" style="endArrow=classic;html=1;" edge="1" parent="1">
          <mxGeometry width="50" height="50" relative="1" as="geometry">
            <mxPoint x="110" y="199.5" as="sourcePoint" />
            <mxPoint x="170" y="199.5" as="targetPoint" />
          </mxGeometry>
        </mxCell>
        <mxCell id="Qsali9sFUtpeHcabr8F2-6" value="" style="endArrow=classic;html=1;" edge="1" parent="1">
          <mxGeometry width="50" height="50" relative="1" as="geometry">
            <mxPoint x="310" y="199.5" as="sourcePoint" />
            <mxPoint x="370" y="200" as="targetPoint" />
          </mxGeometry>
        </mxCell>
        <mxCell id="Qsali9sFUtpeHcabr8F2-7" value="" style="ellipse;whiteSpace=wrap;html=1;aspect=fixed;strokeColor=#000000;fillColor=#1A1A1A;" vertex="1" parent="1">
          <mxGeometry x="730" y="160" width="80" height="80" as="geometry" />
        </mxCell>
        <mxCell id="Qsali9sFUtpeHcabr8F2-8" value="" style="endArrow=classic;html=1;" edge="1" parent="1">
          <mxGeometry width="50" height="50" relative="1" as="geometry">
            <mxPoint x="660" y="199.5" as="sourcePoint" />
            <mxPoint x="730" y="200" as="targetPoint" />
          </mxGeometry>
        </mxCell>
        <mxCell id="Qsali9sFUtpeHcabr8F2-10" value="Get Menu" style="rounded=0;whiteSpace=wrap;html=1;" vertex="1" parent="1">
          <mxGeometry x="370" y="170" width="130" height="60" as="geometry" />
        </mxCell>
        <mxCell id="Qsali9sFUtpeHcabr8F2-11" value="" style="endArrow=classic;html=1;" edge="1" parent="1">
          <mxGeometry width="50" height="50" relative="1" as="geometry">
            <mxPoint x="510" y="199.5" as="sourcePoint" />
            <mxPoint x="540" y="200" as="targetPoint" />
            <Array as="points">
              <mxPoint x="500" y="200" />
            </Array>
          </mxGeometry>
        </mxCell>
      </root>
    </mxGraphModel>
  </diagram>
</mxfile>
